<?xml version="1.0" encoding="utf-8"?>
<!-- Generator: Adobe Illustrator 27.2.0, SVG Export Plug-In . SVG Version: 6.00 Build 0)  -->
<svg version="1.1" id="Ebene_1" xmlns="http://www.w3.org/2000/svg" xmlns:xlink="http://www.w3.org/1999/xlink" x="0px" y="0px"
	 viewBox="0 0 200 200" style="enable-background:new 0 0 200 200;" xml:space="preserve">
<style type="text/css">
	.st0{fill:#009FE3;}
	.st1{fill:#FFED00;}
	.st2{fill:#E6007E;}
</style>
<g>
	<path d="M81,57.5c0,0,45.8-8.2,54-22.4l-5.7,23.7L81,57.5z"/>
	<path class="st0" d="M81,57.5c0,0,36.3,2,54.6-11.1l-4.3,16.1L81,57.5z"/>
	<path class="st1" d="M81,57.5c0,0,54.8,0.8,57.9,10l-2.1,11.1L81,57.5z"/>
	<path class="st2" d="M81,57.5c0,0,61.6,14.2,60.3,22.1l-22.1,85.3c0,0,0.3-9.8-28.8-14.5s-25.9-5.1-31.9-6.3L81,57.5z"/>
</g>
</svg>
