<?xml version="1.0" encoding="utf-8"?>
<!-- Generator: Adobe Illustrator 27.2.0, SVG Export Plug-In . SVG Version: 6.00 Build 0)  -->
<svg version="1.1" id="Ebene_1" xmlns="http://www.w3.org/2000/svg" xmlns:xlink="http://www.w3.org/1999/xlink" x="0px" y="0px"
	 viewBox="0 0 100 60" style="enable-background:new 0 0 100 60;" xml:space="preserve">
<style type="text/css">
	.st0{fill:url(#SVGID_1_);}
	.st1{fill:url(#SVGID_00000031199555448402272870000004477771417125634433_);}
	.st2{fill:#E6007E;}
	.st3{fill:#009FE3;}
</style>
<linearGradient id="SVGID_1_" gradientUnits="userSpaceOnUse" x1="6617.4595" y1="68.8703" x2="6654.1162" y2="68.8703" gradientTransform="matrix(-1 0 0 -1 6672.3101 96.5843)">
	<stop  offset="0" style="stop-color:#FFFFFF;stop-opacity:0"/>
	<stop  offset="0.1702" style="stop-color:#C6EAF9;stop-opacity:0.1702"/>
	<stop  offset="0.3969" style="stop-color:#80CFF1;stop-opacity:0.3969"/>
	<stop  offset="0.6015" style="stop-color:#49BBEB;stop-opacity:0.6015"/>
	<stop  offset="0.7765" style="stop-color:#21ACE7;stop-opacity:0.7765"/>
	<stop  offset="0.9151" style="stop-color:#09A2E4;stop-opacity:0.9151"/>
	<stop  offset="1" style="stop-color:#009FE3"/>
</linearGradient>
<rect x="18.2" y="20.9" class="st0" width="36.7" height="13.6"/>
<linearGradient id="SVGID_00000032606204131863142870000004278308400043478696_" gradientUnits="userSpaceOnUse" x1="6617.4595" y1="82.1363" x2="6653.9673" y2="82.1363" gradientTransform="matrix(-1 0 0 -1 6672.3101 96.5843)">
	<stop  offset="0" style="stop-color:#FFFFFF;stop-opacity:0"/>
	<stop  offset="0.1702" style="stop-color:#F9C6E2;stop-opacity:0.1702"/>
	<stop  offset="0.3969" style="stop-color:#F380BF;stop-opacity:0.3969"/>
	<stop  offset="0.6015" style="stop-color:#ED49A3;stop-opacity:0.6015"/>
	<stop  offset="0.7765" style="stop-color:#E9218F;stop-opacity:0.7765"/>
	<stop  offset="0.9151" style="stop-color:#E70983;stop-opacity:0.9151"/>
	<stop  offset="1" style="stop-color:#E6007E"/>
</linearGradient>
<rect x="18.3" y="8" style="fill:url(#SVGID_00000032606204131863142870000004278308400043478696_);" width="36.5" height="12.9"/>
<g>
	<path class="st2" d="M5,46.8L7.4,39h5.9l-0.4,1.3H8.5l-0.5,1.8h3.8l-0.4,1.3H7.5l-0.6,2h4.5L11,46.8H5z"/>
	<path class="st2" d="M11.5,46.8l7.7-7.8h1.7l-7.7,7.8H11.5z M16.9,46.8L14,39h1.8l2.8,7.8H16.9z"/>
	<path class="st2" d="M19.6,46.8L22,39h3.5c0.8,0,1.3,0.2,1.6,0.6c0.3,0.4,0.4,1,0.1,1.8c-0.2,0.8-0.7,1.4-1.2,1.8
		c-0.6,0.4-1.3,0.6-2,0.6h-2l-0.9,2.9H19.6z M22.4,42.6h1.8c0.4,0,0.7-0.1,1-0.3c0.3-0.2,0.4-0.5,0.5-0.8c0.1-0.3,0.1-0.6,0-0.8
		c-0.1-0.2-0.4-0.3-0.8-0.3h-1.8L22.4,42.6z"/>
	<path class="st2" d="M26.9,46.8l2.4-7.8h3.6c0.4,0,0.8,0.1,1.1,0.3c0.3,0.2,0.5,0.4,0.6,0.8c0.1,0.3,0.1,0.7,0,1.1
		c-0.3,1-0.9,1.6-1.9,2c0.4,0,0.7,0.1,0.8,0.3c0.1,0.2,0.1,0.5,0,0.8l-0.8,2.6h-1.5l0.7-2.2c0.1-0.3,0.1-0.5,0-0.6
		c-0.1-0.1-0.2-0.2-0.5-0.2h-2.2l-0.9,3H26.9z M29.7,42.6h1.7c0.4,0,0.8-0.1,1.1-0.3c0.3-0.2,0.5-0.5,0.6-0.8c0.2-0.7-0.1-1.1-1-1.1
		h-1.7L29.7,42.6z"/>
	<path class="st2" d="M34.5,46.8l2.4-7.8h5.9l-0.4,1.3H38l-0.5,1.8h3.8l-0.4,1.3h-3.8l-0.6,2H41l-0.4,1.3H34.5z"/>
	<path class="st2" d="M44.5,47c-0.7,0-1.3-0.1-1.7-0.3c-0.4-0.2-0.6-0.6-0.7-1c-0.1-0.4-0.1-0.9,0.1-1.4h1.5c-0.1,0.4,0,0.7,0.2,1
		c0.2,0.3,0.6,0.4,1.2,0.4h0.1c0.4,0,0.8-0.1,1-0.3c0.3-0.2,0.5-0.4,0.5-0.7c0.1-0.2,0.1-0.4,0-0.5c-0.1-0.1-0.3-0.2-0.6-0.3
		l-1.3-0.3c-0.7-0.1-1.1-0.4-1.3-0.8c-0.2-0.4-0.2-0.9,0-1.5c0.1-0.4,0.3-0.8,0.7-1.1c0.3-0.4,0.8-0.7,1.3-0.9
		c0.5-0.2,1.1-0.3,1.7-0.3c0.6,0,1.1,0.1,1.5,0.3c0.4,0.2,0.6,0.5,0.7,0.9c0.1,0.4,0.1,0.8-0.1,1.3h-1.5c0.1-0.4,0-0.7-0.2-0.9
		c-0.2-0.2-0.5-0.3-0.9-0.3h-0.1c-0.4,0-0.8,0.1-1.1,0.3c-0.3,0.2-0.5,0.4-0.6,0.7c-0.1,0.3-0.1,0.4,0,0.6c0.1,0.1,0.3,0.2,0.6,0.3
		l1.1,0.2c0.6,0.1,1.1,0.4,1.4,0.7c0.3,0.4,0.3,0.9,0.1,1.5c-0.1,0.4-0.4,0.9-0.7,1.2c-0.3,0.4-0.8,0.7-1.3,0.9
		C45.7,46.8,45.1,47,44.5,47z"/>
	<path class="st2" d="M51.6,47c-0.7,0-1.3-0.1-1.7-0.3c-0.4-0.2-0.6-0.6-0.7-1c-0.1-0.4-0.1-0.9,0.1-1.4h1.5c-0.1,0.4,0,0.7,0.2,1
		c0.2,0.3,0.6,0.4,1.2,0.4h0.1c0.4,0,0.8-0.1,1-0.3c0.3-0.2,0.5-0.4,0.5-0.7c0.1-0.2,0.1-0.4,0-0.5c-0.1-0.1-0.3-0.2-0.6-0.3
		l-1.3-0.3c-0.7-0.1-1.1-0.4-1.3-0.8c-0.2-0.4-0.2-0.9,0-1.5c0.1-0.4,0.3-0.8,0.7-1.1c0.3-0.4,0.8-0.7,1.3-0.9
		c0.5-0.2,1.1-0.3,1.7-0.3c0.6,0,1.1,0.1,1.5,0.3c0.4,0.2,0.6,0.5,0.7,0.9c0.1,0.4,0.1,0.8-0.1,1.3h-1.5c0.1-0.4,0-0.7-0.2-0.9
		c-0.2-0.2-0.5-0.3-0.9-0.3h-0.1c-0.4,0-0.8,0.1-1.1,0.3c-0.3,0.2-0.5,0.4-0.6,0.7c-0.1,0.3-0.1,0.4,0,0.6c0.1,0.1,0.3,0.2,0.6,0.3
		l1.1,0.2c0.6,0.1,1.1,0.4,1.4,0.7c0.3,0.4,0.3,0.9,0.1,1.5c-0.1,0.4-0.4,0.9-0.7,1.2c-0.3,0.4-0.8,0.7-1.3,0.9
		C52.8,46.8,52.2,47,51.6,47z"/>
	<path class="st3" d="M7.8,56.7c-0.7,0-1.4-0.2-1.8-0.5c-0.5-0.3-0.8-0.8-0.9-1.4c-0.1-0.6-0.1-1.3,0.2-2.2c0.3-0.8,0.6-1.6,1.1-2.2
		c0.5-0.6,1.1-1.1,1.8-1.4c0.7-0.3,1.4-0.5,2.1-0.5c0.7,0,1.4,0.2,1.8,0.5c0.5,0.3,0.8,0.8,0.9,1.4c0.1,0.6,0.1,1.3-0.2,2.2
		c-0.3,0.8-0.6,1.6-1.1,2.2c-0.5,0.6-1.1,1.1-1.8,1.4C9.3,56.5,8.5,56.7,7.8,56.7z M8.2,55.3h0.1c0.7,0,1.3-0.2,1.9-0.7
		c0.5-0.5,0.9-1.1,1.2-2c0.3-0.8,0.3-1.5,0-2c-0.3-0.5-0.7-0.7-1.4-0.7H9.8c-0.7,0-1.3,0.2-1.9,0.7c-0.5,0.5-0.9,1.1-1.2,2
		c-0.3,0.8-0.3,1.5,0,2C7,55.1,7.4,55.3,8.2,55.3z"/>
	<path class="st3" d="M13,56.6l2.4-7.8h1.5L16,52h3.4l1-3.2h1.5l-2.4,7.8H18l1-3.2h-3.4l-1,3.2H13z"/>
	<path class="st3" d="M21.3,56.6l2.4-7.8h2l1.4,6l-0.2,0.2l1.9-6.2h1.5l-2.4,7.8h-2l-1.4-6l0.1-0.1l-1.9,6.1H21.3z"/>
	<path class="st3" d="M29.7,56.6l2.4-7.8H38l-0.4,1.3h-4.4l-0.5,1.8h3.8L36,53.2h-3.8l-0.6,2h4.5l-0.4,1.3H29.7z"/>
	<path class="st3" d="M38.6,56.6l5.5-7.8h1.8l0.6,7.8h-1.6l-0.5-6.4h0.2l-4.4,6.4H38.6z M40.7,54.7l0.8-1.3h4.3l-0.4,1.3H40.7z"/>
	<path class="st3" d="M50.2,56.7c-1.1,0-1.8-0.3-2.1-0.8c-0.3-0.5-0.4-1.2-0.1-2.1l1.5-5.1h1.5l-1.5,4.9c-0.2,0.6-0.2,1.1,0,1.3
		c0.2,0.3,0.5,0.4,1,0.4h0.1c0.5,0,0.9-0.1,1.3-0.4c0.3-0.3,0.6-0.7,0.8-1.3l1.5-4.9h1.5l-1.5,5.1c-0.3,0.9-0.7,1.6-1.4,2.1
		S51.3,56.7,50.2,56.7z"/>
	<path class="st3" d="M55.1,56.6l2.4-7.8h5.7l-0.4,1.3h-4.2l-0.6,2h3.6l-0.4,1.3h-3.6l-1,3.1H55.1z"/>
	<path class="st3" d="M62,56.6l2.4-7.8h3.5c0.8,0,1.3,0.2,1.6,0.6c0.3,0.4,0.4,1,0.1,1.8c-0.2,0.8-0.7,1.4-1.2,1.8
		c-0.6,0.4-1.3,0.6-2,0.6h-2l-0.9,2.9H62z M64.8,52.3h1.8c0.4,0,0.7-0.1,1-0.3c0.3-0.2,0.4-0.5,0.5-0.8c0.1-0.3,0.1-0.6,0-0.8
		c-0.1-0.2-0.4-0.3-0.8-0.3h-1.8L64.8,52.3z"/>
	<path class="st3" d="M69.3,56.6l2.4-7.8h3.6c0.4,0,0.8,0.1,1.1,0.3c0.3,0.2,0.5,0.4,0.6,0.8c0.1,0.3,0.1,0.7,0,1.1
		c-0.3,1-0.9,1.6-1.9,2c0.4,0,0.7,0.1,0.8,0.3c0.1,0.2,0.1,0.5,0,0.8l-0.8,2.6h-1.5l0.7-2.2c0.1-0.3,0.1-0.5,0-0.6
		c-0.1-0.1-0.2-0.2-0.5-0.2h-2.2l-0.9,3H69.3z M72.1,52.3h1.7c0.4,0,0.8-0.1,1.1-0.3c0.3-0.2,0.5-0.5,0.6-0.8c0.2-0.7-0.1-1.1-1-1.1
		h-1.7L72.1,52.3z"/>
	<path class="st3" d="M77,56.6l2.4-7.8h5.9l-0.4,1.3h-4.4l-0.5,1.8h3.8l-0.4,1.3h-3.8l-0.6,2h4.5L83,56.6H77z"/>
	<path class="st3" d="M84.4,56.6l2.4-7.8h1.5l-2.4,7.8H84.4z"/>
	<path class="st3" d="M90.3,56.7c-0.7,0-1.3-0.1-1.7-0.3c-0.4-0.2-0.6-0.6-0.7-1c-0.1-0.4-0.1-0.9,0.1-1.4h1.5c-0.1,0.4,0,0.7,0.2,1
		c0.2,0.3,0.6,0.4,1.2,0.4h0.1c0.4,0,0.8-0.1,1-0.3c0.3-0.2,0.5-0.4,0.5-0.7c0.1-0.2,0.1-0.4,0-0.5c-0.1-0.1-0.3-0.2-0.6-0.3
		l-1.3-0.3c-0.7-0.1-1.1-0.4-1.3-0.8c-0.2-0.4-0.2-0.9,0-1.5c0.1-0.4,0.3-0.8,0.7-1.1c0.3-0.4,0.8-0.7,1.3-0.9
		c0.5-0.2,1.1-0.3,1.7-0.3c0.6,0,1.1,0.1,1.5,0.3c0.4,0.2,0.6,0.5,0.7,0.9c0.1,0.4,0.1,0.8-0.1,1.3h-1.5c0.1-0.4,0-0.7-0.2-0.9
		c-0.2-0.2-0.5-0.3-0.9-0.3h-0.1c-0.4,0-0.8,0.1-1.1,0.3c-0.3,0.2-0.5,0.4-0.6,0.7c-0.1,0.3-0.1,0.4,0,0.6c0.1,0.1,0.3,0.2,0.6,0.3
		l1.1,0.2c0.6,0.1,1.1,0.4,1.4,0.7c0.3,0.4,0.3,0.9,0.1,1.5c-0.1,0.4-0.4,0.9-0.7,1.2c-0.3,0.4-0.8,0.7-1.3,0.9
		C91.5,56.6,91,56.7,90.3,56.7z"/>
</g>
<circle class="st3" cx="18.3" cy="20.9" r="13.3"/>
<path d="M18.3,34.6c-7.6,0-13.7-6.2-13.7-13.7S10.8,7.2,18.3,7.2S32,13.4,32,20.9S25.9,34.6,18.3,34.6z M18.3,7.9
	c-7.2,0-13,5.8-13,13s5.8,13,13,13s13-5.8,13-13S25.5,7.9,18.3,7.9z"/>
<path class="st2" d="M18.3,7.6c7.4,0,13.3,6,13.3,13.3H18.3V7.6z"/>
<rect x="17.9" y="7.6" width="0.7" height="2.6"/>
<rect x="11.9" y="9.2" transform="matrix(0.866 -0.5 0.5 0.866 -3.5935 7.5462)" width="0.7" height="2.6"/>
<rect x="7.5" y="13.6" transform="matrix(0.5 -0.866 0.866 0.5 -8.9624 14.2626)" width="0.7" height="2.6"/>
<rect x="5" y="20.6" width="2.6" height="0.7"/>
<rect x="6.6" y="26.6" transform="matrix(0.866 -0.5 0.5 0.866 -12.4219 7.5463)" width="2.6" height="0.7"/>
<rect x="11" y="31" transform="matrix(0.5 -0.866 0.866 0.5 -21.0221 26.3219)" width="2.6" height="0.7"/>
<rect x="17.9" y="31.7" width="0.7" height="2.6"/>
<rect x="24" y="30.1" transform="matrix(0.866 -0.5 0.5 0.866 -12.4219 16.3746)" width="0.7" height="2.6"/>
<rect x="28.4" y="25.7" transform="matrix(0.5 -0.866 0.866 0.5 -8.9624 38.3816)" width="0.7" height="2.6"/>
<rect x="29.1" y="20.6" width="2.6" height="0.7"/>
<rect x="27.5" y="14.5" transform="matrix(0.866 -0.5 0.5 0.866 -3.5935 16.3746)" width="2.6" height="0.7"/>
<rect x="23.1" y="10.1" transform="matrix(0.5 -0.866 0.866 0.5 3.0972 26.3219)" width="2.6" height="0.7"/>
<rect x="17.9" y="11.1" width="0.8" height="9.8"/>
<rect x="17.9" y="20.6" width="8.7" height="0.7"/>
<path d="M27.5,10.7l0.6-0.9l0.4,0.3l1-1.4l-2.6-1.8l-1,1.4l0.4,0.3l-0.6,0.8c-1.8-1.1-3.8-1.9-6-2.1V5.8h0.7V3.3h-4.5v2.5h0.7v1.5
	c-2.1,0.2-4.1,1-5.8,2l-0.7-0.8l0.4-0.3L9.6,6.8l-2.4,2l1.1,1.3l0.4-0.3l0.6,0.8c-2.9,2.5-4.7,6.2-4.7,10.3
	c0,7.6,6.2,13.7,13.7,13.7S32,28.5,32,20.9C32,16.9,30.3,13.2,27.5,10.7z M18.3,33.9c-7.2,0-13-5.8-13-13s5.8-13,13-13s13,5.8,13,13
	S25.5,33.9,18.3,33.9z"/>
</svg>
