<?xml version="1.0" encoding="UTF-8"?>
<svg id="Ebene_1" data-name="Ebene 1" xmlns="http://www.w3.org/2000/svg" version="1.1" xmlns:xlink="http://www.w3.org/1999/xlink" viewBox="0 0 595.3 841.9">
  <defs>
    <style>
      .cls-1 {
        fill: #ccc;
      }

      .cls-1, .cls-2, .cls-3, .cls-4, .cls-5, .cls-6, .cls-7, .cls-8, .cls-9, .cls-10, .cls-11 {
        stroke-width: 0px;
      }

      .cls-12 {
        stroke: #a8a8a8;
      }

      .cls-12, .cls-13, .cls-14, .cls-15, .cls-16, .cls-17, .cls-18, .cls-19, .cls-20, .cls-21, .cls-22, .cls-23, .cls-24, .cls-25, .cls-26, .cls-27, .cls-28, .cls-29, .cls-30, .cls-31, .cls-3, .cls-32, .cls-33, .cls-34, .cls-35, .cls-36, .cls-37, .cls-38, .cls-39, .cls-40, .cls-41, .cls-42, .cls-43, .cls-44, .cls-45, .cls-46, .cls-47, .cls-48, .cls-49, .cls-50, .cls-51, .cls-52, .cls-53, .cls-54, .cls-55, .cls-56, .cls-57, .cls-58, .cls-59, .cls-60, .cls-61, .cls-62 {
        fill: none;
      }

      .cls-12, .cls-13, .cls-14, .cls-15, .cls-16, .cls-17, .cls-18, .cls-19, .cls-20, .cls-21, .cls-22, .cls-23, .cls-24, .cls-25, .cls-26, .cls-27, .cls-28, .cls-29, .cls-30, .cls-31, .cls-32, .cls-33, .cls-34, .cls-35, .cls-36, .cls-37, .cls-38, .cls-39, .cls-40, .cls-41, .cls-42, .cls-43, .cls-44, .cls-45, .cls-46, .cls-47, .cls-48, .cls-49, .cls-50, .cls-51, .cls-52, .cls-53, .cls-54, .cls-55, .cls-56, .cls-57, .cls-58, .cls-59, .cls-60, .cls-61, .cls-62 {
        stroke-miterlimit: 10;
      }

      .cls-12, .cls-13, .cls-14, .cls-15, .cls-16, .cls-17, .cls-18, .cls-19, .cls-20, .cls-21, .cls-22, .cls-23, .cls-24, .cls-25, .cls-26, .cls-27, .cls-28, .cls-29, .cls-30, .cls-31, .cls-32, .cls-33, .cls-34, .cls-35, .cls-36, .cls-37, .cls-38, .cls-39, .cls-40, .cls-41, .cls-42, .cls-43, .cls-44, .cls-45, .cls-46, .cls-48, .cls-49, .cls-50, .cls-51, .cls-52, .cls-53, .cls-54, .cls-55, .cls-56, .cls-57, .cls-58, .cls-59, .cls-60, .cls-61, .cls-62 {
        stroke-width: 1px;
      }

      .cls-13 {
        stroke: #0d0d0d;
      }

      .cls-14 {
        stroke: #a1a1a1;
      }

      .cls-15 {
        stroke: #454545;
      }

      .cls-16 {
        stroke: #ababab;
      }

      .cls-17 {
        stroke: #3d3d3d;
      }

      .cls-2 {
        fill: #000;
      }

      .cls-18 {
        stroke: #a3a3a3;
      }

      .cls-19 {
        stroke: #636363;
      }

      .cls-20 {
        stroke: #8c8c8c;
      }

      .cls-21 {
        stroke: #696969;
      }

      .cls-22 {
        stroke: #c7c7c7;
      }

      .cls-23 {
        stroke: #6b6b6b;
      }

      .cls-24 {
        stroke: #292929;
      }

      .cls-63 {
        clip-path: url(#clippath-2);
      }

      .cls-25 {
        stroke: #1c1c1c;
      }

      .cls-26 {
        stroke: #2b2b2b;
      }

      .cls-27 {
        stroke: #b0b0b0;
      }

      .cls-28 {
        stroke: #050505;
      }

      .cls-29 {
        stroke: #737373;
      }

      .cls-30 {
        stroke: #595959;
      }

      .cls-31 {
        stroke: #4f4f4f;
      }

      .cls-32 {
        stroke: #171717;
      }

      .cls-4 {
        fill: #b2b2b2;
      }

      .cls-33 {
        stroke: #141414;
      }

      .cls-34 {
        stroke: #707070;
      }

      .cls-5 {
        fill: #009ee3;
      }

      .cls-64 {
        clip-path: url(#clippath-1);
      }

      .cls-6 {
        fill: #666;
      }

      .cls-35 {
        stroke: #878787;
      }

      .cls-7 {
        fill: #999;
      }

      .cls-36 {
        stroke: #7d7d7d;
      }

      .cls-37 {
        stroke: #787878;
      }

      .cls-38 {
        stroke: #c4c4c4;
      }

      .cls-39 {
        stroke: #858585;
      }

      .cls-40 {
        stroke: #bfbfbf;
      }

      .cls-41 {
        stroke: #8f8f8f;
      }

      .cls-42 {
        stroke: #5c5c5c;
      }

      .cls-43 {
        stroke: #242424;
      }

      .cls-44 {
        stroke: #080808;
      }

      .cls-45 {
        stroke: #999;
      }

      .cls-65 {
        clip-path: url(#clippath);
      }

      .cls-46 {
        stroke: #b8b8b8;
      }

      .cls-47 {
        stroke: #000;
        stroke-width: .3px;
      }

      .cls-48 {
        stroke: #bdbdbd;
      }

      .cls-8 {
        fill: #333;
      }

      .cls-49 {
        stroke: #0f0f0f;
      }

      .cls-50 {
        stroke: #212121;
      }

      .cls-51 {
        stroke: #383838;
      }

      .cls-52 {
        stroke: #9c9c9c;
      }

      .cls-53 {
        stroke: #333;
      }

      .cls-54 {
        stroke: #303030;
      }

      .cls-9 {
        fill: #fff;
      }

      .cls-55 {
        stroke: #949494;
      }

      .cls-56 {
        stroke: #404040;
      }

      .cls-57 {
        stroke: #b5b5b5;
      }

      .cls-58 {
        stroke: #474747;
      }

      .cls-10 {
        fill: #ffed00;
      }

      .cls-11 {
        fill: #e5007d;
      }

      .cls-59 {
        stroke: gray;
      }

      .cls-60 {
        stroke: #4d4d4d;
      }

      .cls-61 {
        stroke: #616161;
      }

      .cls-62 {
        stroke: #545454;
      }
    </style>
    <clipPath id="clippath">
      <path class="cls-3" d="M408.8,22c-6.3,0-12.7,1.6-18.1,4.7-9.1,5.3-15.8,14.9-16,28.9.4,21,15.2,32.2,31,33.6h6.4c15.8-1.3,30.6-12.5,31-33.6-.4-22.5-17.3-33.7-34.2-33.7h0"/>
    </clipPath>
    <clipPath id="clippath-1">
      <path class="cls-3" d="M408.8,22c-16.9,0-33.8,11.2-34.2,33.7.4,21,15.2,32.2,31,33.6h6.4c15.8-1.3,30.6-12.5,31-33.6-.4-22.5-17.3-33.7-34.2-33.7h0"/>
    </clipPath>
    <clipPath id="clippath-2">
      <path class="cls-3" d="M408.8,22c-6.3,0-12.7,1.6-18.1,4.7-9.1,5.3-15.8,14.9-16,28.9.4,21,15.2,32.2,31,33.6h6.4c15.8-1.3,30.6-12.5,31-33.6-.4-22.5-17.3-33.7-34.2-33.7h0"/>
    </clipPath>
  </defs>
  <g>
    <polygon class="cls-2" points="458.7 58.3 458.7 41.2 451.6 41.2 451.6 37.7 469.8 37.7 469.8 41.2 462.6 41.2 462.6 58.3 458.7 58.3"/>
    <path class="cls-2" d="M471.6,49.2h6.3c0-.9-.4-1.6-.9-2.1-.6-.5-1.3-.7-2.1-.7h-.2c-.8,0-1.5.2-2.1.7-.6.5-.9,1.2-1,2.1M474.9,58.5c-1.2,0-2.4-.3-3.4-.9-1.1-.6-1.9-1.5-2.6-2.6-.7-1.1-1-2.5-1-4.1s.3-2.8.8-3.9c.6-1.2,1.4-2.1,2.4-2.7,1-.7,2.3-1,3.8-1s2.7.3,3.7,1,1.7,1.5,2.2,2.7c.5,1.1.7,2.4.7,3.8s0,.4,0,.7c0,.2,0,.5,0,.7h-9.9c0,1,.5,1.8,1.1,2.4.7.6,1.4.9,2.2.9h.2c.7,0,1.3-.2,1.7-.6.4-.4.7-.8.9-1.3h3.8c-.4,1.4-1.1,2.6-2.2,3.5-1.1.9-2.6,1.4-4.4,1.4"/>
    <rect class="cls-2" x="484.8" y="37.7" width="3.8" height="20.5"/>
    <path class="cls-2" d="M495.4,49.2h6.3c0-.9-.4-1.6-.9-2.1-.6-.5-1.3-.7-2.1-.7h-.2c-.8,0-1.5.2-2.1.7-.6.5-.9,1.2-1,2.1M498.7,58.5c-1.2,0-2.4-.3-3.4-.9-1.1-.6-1.9-1.5-2.6-2.6-.7-1.1-1-2.5-1-4.1s.3-2.8.8-3.9c.6-1.2,1.4-2.1,2.4-2.7,1-.7,2.3-1,3.8-1s2.7.3,3.7,1,1.7,1.5,2.2,2.7c.5,1.1.7,2.4.7,3.8s0,.4,0,.7c0,.2,0,.5,0,.7h-9.9c0,1,.5,1.8,1.1,2.4.7.6,1.4.9,2.2.9h.2c.7,0,1.3-.2,1.7-.6.4-.4.7-.8.9-1.3h3.8c-.4,1.4-1.1,2.6-2.2,3.5-1.1.9-2.6,1.4-4.4,1.4"/>
    <path class="cls-2" d="M512.7,47.1h4.8c1,0,1.8-.3,2.3-.8.5-.5.8-1.3.8-2.1s-.3-1.6-.8-2.1c-.5-.5-1.3-.8-2.3-.8h-4.8v5.9ZM508.8,58.3v-20.5h9.2c2,0,3.6.6,4.8,1.7,1.2,1.1,1.8,2.7,1.8,4.8s-.6,3.6-1.8,4.8c-1.2,1.1-2.8,1.7-4.8,1.7h-5.3v7.6h-4Z"/>
    <path class="cls-2" d="M527.5,58.3v-14.7h3.8v2.9c.3-1,.8-1.7,1.5-2.3.7-.5,1.6-.8,2.7-.8h.7v3.5h-1.3c-2.4,0-3.7,1.2-3.7,3.7v7.6h-3.8Z"/>
    <path class="cls-2" d="M538.8,43.6h3.8v14.7h-3.8v-14.7ZM538.7,37.7h4.1v4h-4.1v-4Z"/>
    <path class="cls-2" d="M546.6,58.3v-14.7h3.8v2.1c.5-.7,1.1-1.3,1.8-1.8.8-.4,1.6-.7,2.6-.7,1.8,0,3,.5,3.9,1.6.8,1,1.2,2.4,1.2,4v9.4h-3.8v-8.9c0-1-.2-1.7-.6-2.2-.4-.5-1-.7-1.7-.7h-.2c-.6,0-1.1.2-1.6.5-.5.3-.9.8-1.1,1.3-.3.6-.4,1.2-.4,1.9v8.2h-3.8Z"/>
    <path class="cls-2" d="M568.9,58.3c-2.5,0-3.8-1.3-3.8-3.8v-7.8h-3v-3.1h3v-4.8h3.8v4.8h3.3v3.1h-3.3v6.7c0,.7.1,1.1.3,1.3.2.2.6.3,1.3.3h2.1v3.2h-3.7Z"/>
    <path class="cls-2" d="M544.6,74.2h-1.9v1.9h1.9v-1.9ZM535.8,76.1v-2.7l1.1-1.1,2.7,3.8h1.9l-3.5-4.8,3.3-3.2h-2l-3.5,3.5v-6.7h-1.5v11.2h1.5ZM531.4,75.6c.6-.5.9-1.2,1-2.1h-1.5c0,.4-.3.8-.6,1.1-.3.3-.7.4-1.1.4h-.1c-.7,0-1.3-.3-1.7-.8-.4-.6-.6-1.2-.6-2.1s.2-1.5.6-2.1c.4-.6.9-.8,1.7-.8h.1c.4,0,.8.1,1.1.4.3.3.5.6.6,1.1h1.5c0-.9-.4-1.5-1-2.1-.6-.5-1.4-.8-2.3-.8s-1.5.2-2.1.5c-.6.4-1,.9-1.3,1.5-.3.6-.5,1.3-.5,2.1s.2,1.5.5,2.1c.3.6.7,1.1,1.3,1.5.6.4,1.3.5,2.1.5s1.7-.3,2.3-.8M520.9,75.8c.4-.3.7-.7.9-1.2v1.5h1.5v-8h-1.5v4.3c0,.5,0,1-.3,1.4-.2.4-.4.7-.7.9-.3.2-.6.3-1,.3h-.1c-.5,0-1-.2-1.2-.5-.3-.3-.4-.8-.4-1.4v-5h-1.5v5.3c0,.9.2,1.6.7,2.1.5.5,1.1.8,2,.8s1.2-.2,1.6-.5M512.1,76.1v-4.1c0-.8.2-1.4.6-1.9.4-.5,1-.7,1.7-.7h.6v-1.5h-.7c-.5,0-1,.2-1.4.5-.4.3-.7.8-.9,1.4v-1.8h-1.4v8h1.5ZM504.3,75c-.6,0-1.2-.2-1.6-.7-.4-.5-.6-1.2-.6-2.1s.2-1.6.6-2.1c.4-.5.9-.7,1.6-.7h.1c.4,0,.8.1,1.1.3.3.2.6.5.8,1,.2.4.3,1,.3,1.6s-.1,1.1-.3,1.6c-.2.4-.5.8-.8,1-.3.2-.7.3-1.1.3h-.1ZM505.6,75.9c.5-.2.9-.5,1.1-.9v1.1h1.5v-11.2h-1.5v4.3c-.2-.4-.5-.7-1-.9-.5-.2-1-.4-1.5-.4s-1.3.2-1.8.5c-.6.3-1,.8-1.3,1.4-.3.6-.5,1.4-.5,2.2s.1,1.6.4,2.2c.3.6.7,1.1,1.2,1.4.5.3,1.1.5,1.8.5s1.1-.1,1.6-.4M498.6,64.9h-1.5v11.2h1.5v-11.2ZM491,75c-.4,0-.7-.1-.9-.3-.2-.2-.4-.5-.4-.8s.1-.7.4-.9.7-.3,1.2-.4l2-.2v.8c0,.3-.1.6-.3.9-.2.3-.5.5-.8.6-.3.2-.7.2-1,.2h-.1ZM492.4,75.9c.5-.3.8-.6,1-1,0,.6,0,1,0,1.3h1.4c0-.4,0-1,0-1.8v-3.4c0-.6-.1-1.1-.4-1.5-.3-.5-.6-.8-1.1-1.1-.5-.3-1.1-.4-1.8-.4s-1.7.2-2.3.7c-.6.5-.9,1.1-1,1.8h1.5c0-.4.2-.7.5-.9s.7-.3,1.1-.3h.1c.5,0,.9.2,1.2.5s.4.7.4,1.3v.3l-2.2.2c-.8,0-1.5.3-2.1.7-.6.4-.9,1-.9,1.8s.1.9.3,1.2c.2.4.5.6.9.8.4.2.9.3,1.4.3s1.1-.1,1.6-.4M487,76.1v-1.4h-1.5c-.2,0-.4,0-.5-.1,0,0-.1-.3-.1-.5v-4.7h1.9v-1.3h-1.9v-2.6h-1.5v2.6h-1.8v1.3h1.8v4.9c0,.6.2,1,.5,1.3.3.3.7.5,1.3.5h1.9ZM480.1,64.9h-1.7v1.8h1.7v-1.8ZM480,68.1h-1.5v8h1.5v-8ZM472.3,74.9c-.6,0-1.1-.2-1.5-.7-.4-.5-.6-1.2-.6-2.1s0-1.2.3-1.6c.2-.4.5-.7.8-.9.3-.2.7-.3,1.1-.3h.1c.4,0,.7.1,1,.3.3.2.6.5.8,1,.2.4.3.9.3,1.5s-.1,1.1-.3,1.5c-.2.4-.5.7-.8,1-.3.2-.7.3-1.1.3h-.1ZM474.3,79.2c.6-.3,1-.7,1.4-1.3.3-.5.5-1.1.5-1.8v-8h-1.5v1.1c-.2-.4-.5-.7-.9-.9-.4-.3-.9-.4-1.5-.4s-1.2.1-1.8.4c-.5.3-1,.8-1.3,1.4-.3.6-.5,1.4-.5,2.3s.2,1.7.5,2.3.8,1.1,1.3,1.4c.5.3,1.1.4,1.8.4s1-.1,1.5-.4c.4-.2.7-.5,1-.9v1.1c0,.8-.2,1.4-.6,1.8-.4.4-1,.6-1.7.6h-.2c-.6,0-1-.1-1.4-.3-.4-.2-.6-.5-.7-.9h-1.5c0,.5.2.9.5,1.3.3.4.7.7,1.3.9.5.2,1.2.3,1.9.3s1.5-.2,2.1-.5M466.8,64.9h-1.7v1.8h1.7v-1.8ZM466.7,68.1h-1.5v8h1.5v-8ZM455.6,74.7v-8.3h2.2c1.2,0,2.1.4,2.8,1.1.7.7,1,1.7,1,3.1s-.3,2.4-1,3.1c-.7.7-1.6,1.1-2.8,1.1h-2.2ZM458,76.1c1,0,1.9-.2,2.7-.7.8-.4,1.4-1.1,1.8-1.9.4-.8.6-1.8.6-3s-.2-2.2-.6-3c-.4-.8-1-1.5-1.8-1.9-.8-.4-1.7-.7-2.7-.7h-4v11.2h4Z"/>
  </g>
  <g>
    <g class="cls-65">
      <rect class="cls-9" x="374.7" y="50.8" width="68.3" height="5.9"/>
    </g>
    <rect class="cls-9" x="379.3" y="56.7" width="58.9" height="11.8"/>
    <g>
      <g class="cls-64">
        <rect class="cls-2" x="441.3" y="50.8" width="2.8" height="3"/>
        <rect class="cls-2" x="441.3" y="54.2" width="2.8" height="2.5"/>
        <rect class="cls-4" x="380.5" y="32.6" width="3.9" height="6.4"/>
        <rect class="cls-2" x="384.4" y="32.6" width="4.3" height="6.4"/>
        <rect class="cls-4" x="373.6" y="32.6" width="2.8" height="6.4"/>
        <rect class="cls-2" x="376.3" y="32.6" width="4.3" height="6.4"/>
        <rect class="cls-4" x="388.7" y="32.6" width="3.9" height="6.4"/>
        <rect class="cls-2" x="392.6" y="32.6" width="4.3" height="6.4"/>
        <rect class="cls-4" x="396.8" y="32.6" width="3.9" height="6.4"/>
        <rect class="cls-2" x="400.7" y="32.6" width="4.3" height="6.4"/>
        <rect class="cls-4" x="405" y="32.6" width="3.9" height="6.4"/>
        <rect class="cls-2" x="408.9" y="32.6" width="4.2" height="6.4"/>
        <rect class="cls-4" x="413.1" y="32.6" width="3.9" height="6.4"/>
        <rect class="cls-2" x="417" y="32.6" width="4.3" height="6.4"/>
        <rect class="cls-4" x="421.2" y="32.6" width="3.9" height="6.4"/>
        <rect class="cls-2" x="425.1" y="32.6" width="4.3" height="6.4"/>
        <rect class="cls-4" x="429.4" y="32.6" width="3.9" height="6.4"/>
        <rect class="cls-2" x="433.2" y="32.6" width="4.3" height="6.4"/>
        <rect class="cls-4" x="437.5" y="33" width="3.9" height="6.4"/>
        <rect class="cls-9" x="384.4" y="39" width="12.4" height="11.8"/>
        <rect class="cls-5" x="373.6" y="39" width="10.8" height="11.8"/>
        <rect class="cls-2" x="373.6" y="68.5" width="11.8" height="5.9"/>
        <rect class="cls-2" x="373.6" y="26.7" width="17" height="5.9"/>
        <rect class="cls-2" x="427.1" y="26.7" width="17" height="5.9"/>
        <rect class="cls-2" x="399.8" y="21.2" width="18" height="5.9"/>
        <rect class="cls-8" x="385.2" y="68.5" width="11.8" height="5.9"/>
        <rect class="cls-9" x="373.6" y="74.4" width="23.4" height="5.9"/>
        <rect class="cls-9" x="420.6" y="74.4" width="23.5" height="5.9"/>
        <rect class="cls-2" x="397" y="74.4" width="23.6" height="5.9"/>
        <rect class="cls-9" x="406.4" y="80.3" width="4.9" height="9.3"/>
        <rect class="cls-2" x="373.6" y="80.3" width="32.8" height="9.3"/>
        <rect class="cls-2" x="411.3" y="80.3" width="32.8" height="9.3"/>
        <rect class="cls-2" x="438.2" y="56.7" width="5.9" height="11.8"/>
        <rect class="cls-2" x="373.6" y="56.7" width="5.9" height="11.8"/>
        <rect class="cls-6" x="397" y="68.5" width="11.8" height="5.9"/>
        <rect class="cls-7" x="408.8" y="68.5" width="11.8" height="5.9"/>
        <rect class="cls-1" x="420.6" y="68.5" width="11.8" height="5.9"/>
        <rect class="cls-9" x="432.4" y="68.5" width="11.7" height="5.9"/>
        <rect class="cls-11" x="396.8" y="39" width="12.1" height="11.8"/>
        <rect class="cls-9" x="408.9" y="39" width="12.4" height="11.8"/>
        <rect class="cls-10" x="421.2" y="39" width="12" height="11.8"/>
        <rect class="cls-9" x="433.2" y="39" width="10.8" height="11.8"/>
        <rect class="cls-2" x="373.6" y="50.8" width="2.8" height="3"/>
        <rect class="cls-2" x="377" y="50.8" width="5" height="3"/>
        <rect class="cls-2" x="382.6" y="50.8" width="5.2" height="3"/>
        <rect class="cls-2" x="394.2" y="50.8" width="5.2" height="3"/>
        <rect class="cls-2" x="388.4" y="50.8" width="5.2" height="3"/>
        <rect class="cls-2" x="400" y="50.8" width="5.1" height="3"/>
        <rect class="cls-2" x="405.7" y="50.8" width="2.8" height="3"/>
        <rect class="cls-2" x="435.7" y="50.8" width="5.1" height="3"/>
        <rect class="cls-2" x="429.9" y="50.8" width="5.2" height="3"/>
        <rect class="cls-2" x="418.4" y="50.8" width="5.1" height="3"/>
        <rect class="cls-2" x="424.1" y="50.8" width="5.2" height="3"/>
        <rect class="cls-2" x="412.6" y="50.8" width="5.1" height="3"/>
        <rect class="cls-2" x="409.2" y="50.8" width="2.8" height="3"/>
        <rect class="cls-2" x="373.6" y="54.2" width="2.8" height="2.5"/>
        <rect class="cls-2" x="377" y="54.2" width="5" height="2.5"/>
        <rect class="cls-2" x="382.6" y="54.2" width="5.2" height="2.5"/>
        <rect class="cls-2" x="394.2" y="54.2" width="5.2" height="2.5"/>
        <rect class="cls-2" x="388.4" y="54.2" width="5.2" height="2.5"/>
        <rect class="cls-2" x="400" y="54.2" width="5.1" height="2.5"/>
        <rect class="cls-2" x="435.7" y="54.2" width="5.1" height="2.5"/>
        <rect class="cls-2" x="429.9" y="54.2" width="5.2" height="2.5"/>
        <rect class="cls-2" x="418.4" y="54.2" width="5.1" height="2.5"/>
        <rect class="cls-2" x="424.1" y="54.2" width="5.2" height="2.5"/>
        <rect class="cls-2" x="412.6" y="54.2" width="5.1" height="2.5"/>
        <line class="cls-22" x1="380.6" y1="56.7" x2="380.6" y2="68.5"/>
        <line class="cls-38" x1="381.8" y1="56.7" x2="381.8" y2="68.5"/>
        <line class="cls-40" x1="382.9" y1="56.7" x2="382.9" y2="68.5"/>
        <line class="cls-48" x1="384.1" y1="56.7" x2="384.1" y2="68.5"/>
        <line class="cls-46" x1="385.2" y1="56.7" x2="385.2" y2="68.5"/>
        <line class="cls-57" x1="386.4" y1="56.7" x2="386.4" y2="68.5"/>
        <line class="cls-27" x1="387.5" y1="56.7" x2="387.5" y2="68.5"/>
        <line class="cls-16" x1="388.7" y1="56.7" x2="388.7" y2="68.5"/>
        <line class="cls-12" x1="389.8" y1="56.7" x2="389.8" y2="68.5"/>
        <line class="cls-18" x1="391" y1="56.7" x2="391" y2="68.5"/>
        <line class="cls-14" x1="392.1" y1="56.7" x2="392.1" y2="68.5"/>
        <line class="cls-52" x1="393.3" y1="56.7" x2="393.3" y2="68.5"/>
        <line class="cls-45" x1="394.4" y1="56.7" x2="394.4" y2="68.5"/>
        <line class="cls-55" x1="395.6" y1="56.7" x2="395.6" y2="68.5"/>
        <line class="cls-41" x1="396.8" y1="56.7" x2="396.8" y2="68.5"/>
        <line class="cls-20" x1="397.9" y1="56.7" x2="397.9" y2="68.5"/>
        <line class="cls-35" x1="399.1" y1="56.7" x2="399.1" y2="68.5"/>
        <line class="cls-39" x1="400.2" y1="56.7" x2="400.2" y2="68.5"/>
        <line class="cls-59" x1="401.4" y1="56.7" x2="401.4" y2="68.5"/>
        <line class="cls-36" x1="402.5" y1="56.7" x2="402.5" y2="68.5"/>
        <line class="cls-37" x1="403.7" y1="56.7" x2="403.7" y2="68.5"/>
        <line class="cls-29" x1="404.8" y1="56.7" x2="404.8" y2="68.5"/>
        <line class="cls-34" x1="406" y1="56.7" x2="406" y2="68.5"/>
        <line class="cls-23" x1="407.1" y1="56.7" x2="407.1" y2="68.5"/>
        <line class="cls-21" x1="408.3" y1="56.7" x2="408.3" y2="68.5"/>
        <line class="cls-19" x1="409.4" y1="56.7" x2="409.4" y2="68.5"/>
        <line class="cls-61" x1="410.6" y1="56.7" x2="410.6" y2="68.5"/>
        <line class="cls-42" x1="411.7" y1="56.7" x2="411.7" y2="68.5"/>
        <line class="cls-30" x1="412.9" y1="56.7" x2="412.9" y2="68.5"/>
        <line class="cls-62" x1="414" y1="56.7" x2="414" y2="68.5"/>
        <line class="cls-31" x1="415.2" y1="56.7" x2="415.2" y2="68.5"/>
        <line class="cls-60" x1="416.3" y1="56.7" x2="416.3" y2="68.5"/>
        <line class="cls-58" x1="417.5" y1="56.7" x2="417.5" y2="68.5"/>
        <line class="cls-15" x1="418.6" y1="56.7" x2="418.6" y2="68.5"/>
        <line class="cls-56" x1="419.8" y1="56.7" x2="419.8" y2="68.5"/>
        <line class="cls-17" x1="421" y1="56.7" x2="421" y2="68.5"/>
        <line class="cls-51" x1="422.1" y1="56.7" x2="422.1" y2="68.5"/>
        <line class="cls-53" x1="423.3" y1="56.7" x2="423.3" y2="68.5"/>
        <line class="cls-54" x1="424.4" y1="56.7" x2="424.4" y2="68.5"/>
        <line class="cls-26" x1="425.6" y1="56.7" x2="425.6" y2="68.5"/>
        <line class="cls-24" x1="426.7" y1="56.7" x2="426.7" y2="68.5"/>
        <line class="cls-43" x1="427.9" y1="56.7" x2="427.9" y2="68.5"/>
        <line class="cls-50" x1="429" y1="56.7" x2="429" y2="68.5"/>
        <line class="cls-25" x1="430.2" y1="56.7" x2="430.2" y2="68.5"/>
        <line class="cls-32" x1="431.3" y1="56.7" x2="431.3" y2="68.5"/>
        <line class="cls-33" x1="432.5" y1="56.7" x2="432.5" y2="68.5"/>
        <line class="cls-49" x1="433.6" y1="56.7" x2="433.6" y2="68.5"/>
        <line class="cls-13" x1="434.8" y1="56.7" x2="434.8" y2="68.5"/>
        <line class="cls-44" x1="435.9" y1="56.7" x2="435.9" y2="68.5"/>
        <line class="cls-28" x1="437.1" y1="56.7" x2="437.1" y2="68.5"/>
        <line class="cls-47" x1="438.2" y1="56.6" x2="438.2" y2="68.5"/>
        <rect class="cls-2" x="405.7" y="54.2" width="2.8" height="8"/>
        <rect class="cls-2" x="409.2" y="54.2" width="2.8" height="8"/>
      </g>
      <g class="cls-63">
        <polygon class="cls-9" points="390.6 32.6 427.1 32.6 427.1 26.7 427.1 21.8 417.8 21.8 417.8 27.1 399.8 27.1 399.8 22 390.6 22 390.6 32.6"/>
      </g>
    </g>
  </g>
</svg>