<?xml version="1.0" encoding="UTF-8"?>
<svg id="Ebene_1" width="150px" height="auto" data-name="Ebene 1" xmlns="http://www.w3.org/2000/svg" version="1.1" xmlns:xlink="http://www.w3.org/1999/xlink" viewBox="0 0 172.5 60.8">
  <defs>
    <style>
      .cls-1 {
        fill: #ccc;
      }

      .cls-1, .cls-2, .cls-3, .cls-4, .cls-5, .cls-6, .cls-7, .cls-8, .cls-9, .cls-10, .cls-11 {
        stroke-width: 0px;
      }

      .cls-12 {
        stroke: #a8a8a8;
      }

      .cls-12, .cls-13, .cls-14, .cls-15, .cls-16, .cls-17, .cls-18, .cls-19, .cls-20, .cls-21, .cls-22, .cls-23, .cls-24, .cls-25, .cls-26, .cls-27, .cls-28, .cls-29, .cls-30, .cls-31, .cls-3, .cls-32, .cls-33, .cls-34, .cls-35, .cls-36, .cls-37, .cls-38, .cls-39, .cls-40, .cls-41, .cls-42, .cls-43, .cls-44, .cls-45, .cls-46, .cls-47, .cls-48, .cls-49, .cls-50, .cls-51, .cls-52, .cls-53, .cls-54, .cls-55, .cls-56, .cls-57, .cls-58, .cls-59, .cls-60, .cls-61, .cls-62 {
        fill: none;
      }

      .cls-12, .cls-13, .cls-14, .cls-15, .cls-16, .cls-17, .cls-18, .cls-19, .cls-20, .cls-21, .cls-22, .cls-23, .cls-24, .cls-25, .cls-26, .cls-27, .cls-28, .cls-29, .cls-30, .cls-31, .cls-32, .cls-33, .cls-34, .cls-35, .cls-36, .cls-37, .cls-38, .cls-39, .cls-40, .cls-41, .cls-42, .cls-43, .cls-44, .cls-45, .cls-46, .cls-47, .cls-48, .cls-49, .cls-50, .cls-51, .cls-52, .cls-53, .cls-54, .cls-55, .cls-56, .cls-57, .cls-58, .cls-59, .cls-60, .cls-61, .cls-62 {
        stroke-miterlimit: 10;
      }

      .cls-12, .cls-13, .cls-14, .cls-15, .cls-16, .cls-17, .cls-18, .cls-19, .cls-20, .cls-21, .cls-22, .cls-23, .cls-24, .cls-25, .cls-26, .cls-27, .cls-28, .cls-29, .cls-30, .cls-31, .cls-32, .cls-33, .cls-34, .cls-35, .cls-36, .cls-37, .cls-38, .cls-39, .cls-40, .cls-41, .cls-42, .cls-43, .cls-44, .cls-45, .cls-46, .cls-48, .cls-49, .cls-50, .cls-51, .cls-52, .cls-53, .cls-54, .cls-55, .cls-56, .cls-57, .cls-58, .cls-59, .cls-60, .cls-61, .cls-62 {
        stroke-width: 1px;
      }

      .cls-13 {
        stroke: #0d0d0d;
      }

      .cls-14 {
        stroke: #a1a1a1;
      }

      .cls-15 {
        stroke: #454545;
      }

      .cls-16 {
        stroke: #ababab;
      }

      .cls-17 {
        stroke: #3d3d3d;
      }

      .cls-2 {
        fill: #000;
      }

      .cls-18 {
        stroke: #a3a3a3;
      }

      .cls-19 {
        stroke: #636363;
      }

      .cls-20 {
        stroke: #8c8c8c;
      }

      .cls-21 {
        stroke: #696969;
      }

      .cls-22 {
        stroke: #c7c7c7;
      }

      .cls-23 {
        stroke: #6b6b6b;
      }

      .cls-24 {
        stroke: #292929;
      }

      .cls-25 {
        stroke: #1c1c1c;
      }

      .cls-26 {
        stroke: #2b2b2b;
      }

      .cls-27 {
        stroke: #b0b0b0;
      }

      .cls-28 {
        stroke: #050505;
      }

      .cls-29 {
        stroke: #737373;
      }

      .cls-30 {
        stroke: #595959;
      }

      .cls-31 {
        stroke: #4f4f4f;
      }

      .cls-32 {
        stroke: #171717;
      }

      .cls-4 {
        fill: #b2b2b2;
      }

      .cls-33 {
        stroke: #141414;
      }

      .cls-34 {
        stroke: #707070;
      }

      .cls-5 {
        fill: #009ee3;
      }

      .cls-6 {
        fill: #666;
      }

      .cls-35 {
        stroke: #878787;
      }

      .cls-7 {
        fill: #999;
      }

      .cls-36 {
        stroke: #7d7d7d;
      }

      .cls-37 {
        stroke: #787878;
      }

      .cls-38 {
        stroke: #c4c4c4;
      }

      .cls-39 {
        stroke: #858585;
      }

      .cls-40 {
        stroke: #bfbfbf;
      }

      .cls-41 {
        stroke: #8f8f8f;
      }

      .cls-42 {
        stroke: #5c5c5c;
      }

      .cls-43 {
        stroke: #242424;
      }

      .cls-44 {
        stroke: #080808;
      }

      .cls-45 {
        stroke: #999;
      }

      .cls-63 {
        clip-path: url(#clippath);
      }

      .cls-46 {
        stroke: #b8b8b8;
      }

      .cls-47 {
        stroke: #000;
        stroke-width: .3px;
      }

      .cls-48 {
        stroke: #bdbdbd;
      }

      .cls-8 {
        fill: #333;
      }

      .cls-49 {
        stroke: #0f0f0f;
      }

      .cls-50 {
        stroke: #212121;
      }

      .cls-51 {
        stroke: #383838;
      }

      .cls-52 {
        stroke: #9c9c9c;
      }

      .cls-53 {
        stroke: #333;
      }

      .cls-54 {
        stroke: #303030;
      }

      .cls-9 {
        fill: #fff;
      }

      .cls-55 {
        stroke: #949494;
      }

      .cls-56 {
        stroke: #404040;
      }

      .cls-57 {
        stroke: #b5b5b5;
      }

      .cls-58 {
        stroke: #474747;
      }

      .cls-10 {
        fill: #ffed00;
      }

      .cls-11 {
        fill: #e5007d;
      }

      .cls-59 {
        stroke: gray;
      }

      .cls-60 {
        stroke: #4d4d4d;
      }

      .cls-61 {
        stroke: #616161;
      }

      .cls-62 {
        stroke: #545454;
      }
    </style>
    <clipPath id="clippath">
      <path class="cls-3" d="M30.7.8c-14.5,0-29,9.6-29.4,28.9.3,18.1,13.1,27.7,26.6,28.8h5.5c13.5-1.1,26.3-10.7,26.6-28.8C59.7,10.5,45.2.8,30.7.8h0"/>
    </clipPath>
  </defs>
  <g>
    <polygon class="cls-2" points="73.5 31.9 73.5 17.3 67.4 17.3 67.4 14.3 83.1 14.3 83.1 17.3 76.9 17.3 76.9 31.9 73.5 31.9"/>
    <path class="cls-2" d="M84.7,24.1h5.4c0-.8-.3-1.3-.8-1.8-.5-.4-1.1-.6-1.8-.6h-.2c-.7,0-1.3.2-1.8.6-.5.4-.8,1-.8,1.8M87.5,32.2c-1,0-2-.3-2.9-.8-.9-.5-1.7-1.3-2.2-2.2-.6-1-.8-2.2-.8-3.5s.2-2.4.7-3.4c.5-1,1.2-1.8,2.1-2.3.9-.6,2-.8,3.2-.8s2.3.3,3.2.8,1.5,1.3,1.9,2.3c.4,1,.6,2,.6,3.3s0,.4,0,.6c0,.2,0,.4,0,.6h-8.5c0,.9.4,1.6,1,2.1.6.5,1.2.8,1.9.8h.2c.6,0,1.1-.2,1.5-.5.4-.3.6-.7.7-1.1h3.2c-.3,1.2-.9,2.2-1.9,3-1,.8-2.2,1.2-3.8,1.2"/>
    <rect class="cls-2" x="96" y="14.3" width="3.3" height="17.6"/>
    <path class="cls-2" d="M105.1,24.1h5.4c0-.8-.3-1.3-.8-1.8-.5-.4-1.1-.6-1.8-.6h-.2c-.7,0-1.3.2-1.8.6-.5.4-.8,1-.8,1.8M107.9,32.2c-1,0-2-.3-2.9-.8-.9-.5-1.7-1.3-2.2-2.2-.6-1-.8-2.2-.8-3.5s.2-2.4.7-3.4c.5-1,1.2-1.8,2.1-2.3.9-.6,2-.8,3.2-.8s2.3.3,3.2.8,1.5,1.3,1.9,2.3c.4,1,.6,2,.6,3.3s0,.4,0,.6c0,.2,0,.4,0,.6h-8.5c0,.9.4,1.6,1,2.1.6.5,1.2.8,1.9.8h.2c.6,0,1.1-.2,1.5-.5.4-.3.6-.7.7-1.1h3.2c-.3,1.2-.9,2.2-1.9,3-1,.8-2.2,1.2-3.8,1.2"/>
    <path class="cls-2" d="M120,22.4h4.2c.9,0,1.6-.2,2-.7.4-.5.7-1.1.7-1.8s-.2-1.4-.7-1.8c-.4-.5-1.1-.7-2-.7h-4.2v5.1ZM116.6,31.9V14.3h7.9c1.7,0,3.1.5,4.1,1.4,1,1,1.6,2.3,1.6,4.1s-.5,3.1-1.6,4.1c-1,1-2.4,1.5-4.1,1.5h-4.5v6.5h-3.4Z"/>
    <path class="cls-2" d="M132.6,31.9v-12.6h3.3v2.5c.3-.8.7-1.5,1.3-1.9.6-.5,1.4-.7,2.3-.7h.6v3h-1.1c-2.1,0-3.1,1-3.1,3.1v6.5h-3.3Z"/>
    <path class="cls-2" d="M142.4,19.3h3.3v12.6h-3.3v-12.6ZM142.3,14.3h3.5v3.4h-3.5v-3.4Z"/>
    <path class="cls-2" d="M149,31.9v-12.6h3.3v1.8c.4-.6.9-1.1,1.6-1.5.7-.4,1.4-.6,2.2-.6,1.5,0,2.6.4,3.3,1.3.7.9,1.1,2,1.1,3.4v8.1h-3.3v-7.7c0-.8-.2-1.4-.5-1.9-.3-.4-.8-.6-1.5-.6h-.2c-.5,0-1,.1-1.4.4-.4.3-.7.7-1,1.2-.2.5-.4,1-.4,1.6v7h-3.3Z"/>
    <path class="cls-2" d="M168.3,31.9c-2.2,0-3.3-1.1-3.3-3.3v-6.7h-2.6v-2.6h2.6v-4.1h3.3v4.1h2.8v2.6h-2.8v5.8c0,.6,0,.9.3,1.1.2.2.5.3,1.1.3h1.8v2.8h-3.2Z"/>
    <path class="cls-2" d="M147.3,45.6h-1.7v1.7h1.7v-1.7ZM139.8,47.3v-2.3l.9-.9,2.3,3.2h1.6l-3-4.1,2.9-2.7h-1.7l-3,3v-5.7h-1.3v9.6h1.3ZM136,46.8c.5-.4.8-1,.9-1.8h-1.3c0,.4-.2.7-.5.9-.3.2-.6.4-1,.4h-.1c-.6,0-1.1-.2-1.4-.7-.3-.5-.5-1.1-.5-1.8s.2-1.3.5-1.8c.3-.5.8-.7,1.4-.7h.1c.4,0,.7.1,1,.4.3.2.4.6.5.9h1.3c0-.7-.4-1.3-.9-1.8-.5-.4-1.2-.6-2-.6s-1.3.2-1.8.5c-.5.3-.9.7-1.1,1.3-.3.5-.4,1.2-.4,1.8s.1,1.3.4,1.8c.3.5.6,1,1.1,1.3.5.3,1.1.5,1.8.5s1.4-.2,2-.6M127,47c.4-.3.6-.6.8-1v1.3h1.3v-6.9h-1.3v3.7c0,.4,0,.8-.2,1.2-.2.3-.4.6-.6.8-.3.2-.5.3-.8.3h-.1c-.5,0-.8-.1-1-.4-.2-.3-.3-.7-.3-1.2v-4.3h-1.3v4.5c0,.7.2,1.3.6,1.8.4.5,1,.7,1.7.7s1-.1,1.4-.4M119.4,47.3v-3.5c0-.7.2-1.2.5-1.6.4-.4.8-.6,1.5-.6h.6v-1.3h-.6c-.5,0-.9.1-1.2.4-.4.3-.6.7-.8,1.2v-1.5h-1.2v6.9h1.3ZM112.7,46.3c-.6,0-1-.2-1.3-.6-.3-.4-.5-1-.5-1.8s.2-1.4.5-1.8c.3-.4.8-.6,1.3-.6h.1c.3,0,.7,0,.9.3.3.2.5.5.7.8.2.4.3.8.3,1.3s0,1-.3,1.3c-.2.4-.4.7-.7.8-.3.2-.6.3-.9.3h-.1ZM113.8,47.1c.4-.2.7-.5.9-.8v1h1.3v-9.6h-1.3v3.7c-.2-.3-.5-.6-.8-.8-.4-.2-.8-.3-1.3-.3s-1.1.1-1.6.4c-.5.3-.8.7-1.1,1.2-.3.5-.4,1.2-.4,1.9s.1,1.4.4,1.9c.3.5.6.9,1,1.2.4.3,1,.4,1.5.4s.9-.1,1.4-.3M107.9,37.7h-1.3v9.6h1.3v-9.6ZM101.3,46.3c-.3,0-.6,0-.8-.3-.2-.2-.3-.4-.3-.7s.1-.6.4-.7.6-.3,1-.3h1.7c0-.1,0,.6,0,.6,0,.3,0,.5-.3.7-.2.2-.4.4-.7.6-.3.1-.6.2-.9.2h-.1ZM102.5,47.1c.4-.2.7-.5.8-.9,0,.5,0,.9,0,1.1h1.2c0-.3,0-.8,0-1.5v-2.9c0-.5-.1-.9-.3-1.3-.2-.4-.5-.7-1-.9-.4-.2-.9-.4-1.5-.4s-1.4.2-1.9.6c-.5.4-.8.9-.8,1.5h1.3c0-.3.2-.6.5-.8s.6-.3,1-.3h.1c.4,0,.8.1,1,.4s.4.6.4,1.1v.2l-1.9.2c-.7,0-1.3.2-1.8.6-.5.3-.7.8-.7,1.6s0,.7.3,1c.2.3.5.6.8.7.3.2.7.3,1.2.3s1-.1,1.4-.4M97.8,47.3v-1.2h-1.3c-.2,0-.3,0-.4-.1,0,0-.1-.2-.1-.4v-4h1.7v-1.1h-1.7v-2.2h-1.3v2.2h-1.5v1.1h1.5v4.2c0,.5.1.8.4,1.1.3.3.6.4,1.1.4h1.6ZM92,37.7h-1.4v1.5h1.4v-1.5ZM91.9,40.4h-1.3v6.9h1.3v-6.9ZM85.2,46.2c-.5,0-1-.2-1.3-.6-.3-.4-.5-1-.5-1.8s0-1,.3-1.4c.2-.4.4-.6.7-.8.3-.2.6-.3.9-.3h.1c.3,0,.6,0,.9.3.3.2.5.5.7.8.2.4.3.8.3,1.3s0,.9-.3,1.3c-.2.4-.4.6-.7.8-.3.2-.6.3-.9.3h-.1ZM87,49.9c.5-.3.9-.6,1.2-1.1.3-.5.4-1,.4-1.6v-6.9h-1.3v1c-.1-.3-.4-.6-.8-.8-.4-.2-.8-.3-1.3-.3s-1.1.1-1.5.4c-.5.3-.8.6-1.1,1.2-.3.5-.4,1.2-.4,1.9s.1,1.4.4,1.9.7.9,1.1,1.2c.5.3,1,.4,1.5.4s.9-.1,1.2-.3c.4-.2.6-.5.8-.8v1c0,.7-.2,1.2-.5,1.6-.4.3-.8.5-1.5.5h-.1c-.5,0-.9,0-1.2-.3-.3-.2-.5-.4-.6-.8h-1.3c0,.4.2.8.5,1.1.3.3.6.6,1.1.8.5.2,1,.3,1.6.3s1.3-.1,1.8-.4M80.5,37.7h-1.4v1.5h1.4v-1.5ZM80.4,40.4h-1.3v6.9h1.3v-6.9ZM70.9,46.1v-7.2h1.9c1,0,1.8.3,2.4.9.6.6.8,1.5.8,2.7s-.3,2.1-.8,2.7c-.6.6-1.4.9-2.4.9h-1.9ZM72.9,47.3c.9,0,1.7-.2,2.3-.6.7-.4,1.2-.9,1.6-1.7.4-.7.6-1.6.6-2.6s-.2-1.8-.6-2.6c-.4-.7-.9-1.3-1.6-1.7-.7-.4-1.5-.6-2.3-.6h-3.4v9.6h3.4Z"/>
  </g>
  <g class="cls-63">
    <rect class="cls-2" x="58.6" y="25.5" width="2.4" height="2.6"/>
    <rect class="cls-2" x="58.6" y="28.4" width="2.4" height="2.1"/>
    <rect class="cls-4" x="6.4" y="9.9" width="3.3" height="5.5"/>
    <rect class="cls-2" x="9.8" y="9.9" width="3.7" height="5.5"/>
    <rect class="cls-4" x=".4" y="9.9" width="2.4" height="5.5"/>
    <rect class="cls-2" x="2.8" y="9.9" width="3.7" height="5.5"/>
    <rect class="cls-4" x="13.4" y="9.9" width="3.3" height="5.5"/>
    <rect class="cls-2" x="16.7" y="9.9" width="3.7" height="5.5"/>
    <rect class="cls-4" x="20.4" y="9.9" width="3.3" height="5.5"/>
    <rect class="cls-2" x="23.7" y="9.9" width="3.7" height="5.5"/>
    <rect class="cls-4" x="27.4" y="9.9" width="3.4" height="5.5"/>
    <rect class="cls-2" x="30.7" y="9.9" width="3.6" height="5.5"/>
    <rect class="cls-4" x="34.4" y="9.9" width="3.3" height="5.5"/>
    <rect class="cls-2" x="37.7" y="9.9" width="3.7" height="5.5"/>
    <rect class="cls-4" x="41.4" y="9.9" width="3.3" height="5.5"/>
    <rect class="cls-2" x="44.7" y="9.9" width="3.7" height="5.5"/>
    <rect class="cls-4" x="48.4" y="9.9" width="3.3" height="5.5"/>
    <rect class="cls-2" x="51.7" y="9.9" width="3.7" height="5.5"/>
    <rect class="cls-4" x="55.4" y="10.2" width="3.3" height="5.5"/>
    <rect class="cls-9" x="9.8" y="15.4" width="10.7" height="10.1"/>
    <rect class="cls-5" x=".4" y="15.4" width="9.3" height="10.1"/>
    <rect class="cls-2" x=".4" y="40.8" width="10.1" height="5.1"/>
    <rect class="cls-2" x=".4" y="4.8" width="14.6" height="5.1"/>
    <rect class="cls-2" x="46.4" y="4.8" width="14.6" height="5.1"/>
    <rect class="cls-2" x="23" y="0" width="15.5" height="5.1"/>
    <rect class="cls-8" x="10.5" y="40.8" width="10.1" height="5.1"/>
    <rect class="cls-9" x=".4" y="45.8" width="20.1" height="5.1"/>
    <rect class="cls-9" x="40.9" y="45.8" width="20.2" height="5.1"/>
    <rect class="cls-2" x="20.6" y="45.8" width="20.3" height="5.1"/>
    <rect class="cls-9" x="28.6" y="50.9" width="4.2" height="8"/>
    <rect class="cls-2" x=".4" y="50.9" width="28.2" height="8"/>
    <rect class="cls-2" x="32.8" y="50.9" width="28.2" height="8"/>
    <rect class="cls-2" x="56" y="30.6" width="5" height="10.2"/>
    <rect class="cls-2" x=".4" y="30.6" width="5" height="10.2"/>
    <rect class="cls-6" x="20.6" y="40.8" width="10.1" height="5.1"/>
    <rect class="cls-7" x="30.7" y="40.8" width="10.1" height="5.1"/>
    <rect class="cls-1" x="40.9" y="40.8" width="10.1" height="5.1"/>
    <rect class="cls-9" x="51" y="40.8" width="10" height="5.1"/>
    <rect class="cls-11" x="20.4" y="15.4" width="10.4" height="10.1"/>
    <rect class="cls-9" x="30.7" y="15.4" width="10.6" height="10.1"/>
    <rect class="cls-10" x="41.4" y="15.4" width="10.3" height="10.1"/>
    <rect class="cls-9" x="51.7" y="15.4" width="9.3" height="10.1"/>
    <rect class="cls-2" x=".4" y="25.5" width="2.4" height="2.6"/>
    <rect class="cls-2" x="3.4" y="25.5" width="4.3" height="2.6"/>
    <rect class="cls-2" x="8.2" y="25.5" width="4.5" height="2.6"/>
    <rect class="cls-2" x="18.1" y="25.5" width="4.4" height="2.6"/>
    <rect class="cls-2" x="13.2" y="25.5" width="4.4" height="2.6"/>
    <rect class="cls-2" x="23.1" y="25.5" width="4.4" height="2.6"/>
    <rect class="cls-2" x="28" y="25.5" width="2.4" height="2.6"/>
    <rect class="cls-2" x="53.8" y="25.5" width="4.4" height="2.6"/>
    <rect class="cls-2" x="48.8" y="25.5" width="4.4" height="2.6"/>
    <rect class="cls-2" x="38.9" y="25.5" width="4.4" height="2.6"/>
    <rect class="cls-2" x="43.9" y="25.5" width="4.4" height="2.6"/>
    <rect class="cls-2" x="34" y="25.5" width="4.4" height="2.6"/>
    <rect class="cls-2" x="31" y="25.5" width="2.4" height="2.6"/>
    <rect class="cls-2" x=".4" y="28.4" width="2.4" height="2.1"/>
    <rect class="cls-2" x="3.4" y="28.4" width="4.3" height="2.1"/>
    <rect class="cls-2" x="8.2" y="28.4" width="4.5" height="2.1"/>
    <rect class="cls-2" x="18.1" y="28.4" width="4.4" height="2.1"/>
    <rect class="cls-2" x="13.2" y="28.4" width="4.4" height="2.1"/>
    <rect class="cls-2" x="23.1" y="28.4" width="4.4" height="2.1"/>
    <rect class="cls-2" x="53.8" y="28.4" width="4.4" height="2.1"/>
    <rect class="cls-2" x="48.8" y="28.4" width="4.4" height="2.1"/>
    <rect class="cls-2" x="38.9" y="28.4" width="4.4" height="2.1"/>
    <rect class="cls-2" x="43.9" y="28.4" width="4.4" height="2.1"/>
    <rect class="cls-2" x="34" y="28.4" width="4.4" height="2.1"/>
    <line class="cls-22" x1="6.5" y1="30.6" x2="6.5" y2="40.8"/>
    <line class="cls-38" x1="7.5" y1="30.6" x2="7.5" y2="40.8"/>
    <line class="cls-40" x1="8.5" y1="30.6" x2="8.5" y2="40.8"/>
    <line class="cls-48" x1="9.5" y1="30.6" x2="9.5" y2="40.8"/>
    <line class="cls-46" x1="10.5" y1="30.6" x2="10.5" y2="40.8"/>
    <line class="cls-57" x1="11.4" y1="30.6" x2="11.4" y2="40.8"/>
    <line class="cls-27" x1="12.4" y1="30.6" x2="12.4" y2="40.8"/>
    <line class="cls-16" x1="13.4" y1="30.6" x2="13.4" y2="40.8"/>
    <line class="cls-12" x1="14.4" y1="30.6" x2="14.4" y2="40.8"/>
    <line class="cls-18" x1="15.4" y1="30.6" x2="15.4" y2="40.8"/>
    <line class="cls-14" x1="16.4" y1="30.6" x2="16.4" y2="40.8"/>
    <line class="cls-52" x1="17.4" y1="30.6" x2="17.4" y2="40.8"/>
    <line class="cls-45" x1="18.4" y1="30.6" x2="18.4" y2="40.8"/>
    <line class="cls-55" x1="19.4" y1="30.6" x2="19.4" y2="40.8"/>
    <line class="cls-41" x1="20.4" y1="30.6" x2="20.4" y2="40.8"/>
    <line class="cls-20" x1="21.3" y1="30.6" x2="21.3" y2="40.8"/>
    <line class="cls-35" x1="22.3" y1="30.6" x2="22.3" y2="40.8"/>
    <line class="cls-39" x1="23.3" y1="30.6" x2="23.3" y2="40.8"/>
    <line class="cls-59" x1="24.3" y1="30.6" x2="24.3" y2="40.8"/>
    <line class="cls-36" x1="25.3" y1="30.6" x2="25.3" y2="40.8"/>
    <line class="cls-37" x1="26.3" y1="30.6" x2="26.3" y2="40.8"/>
    <line class="cls-29" x1="27.3" y1="30.6" x2="27.3" y2="40.8"/>
    <line class="cls-34" x1="28.3" y1="30.6" x2="28.3" y2="40.8"/>
    <line class="cls-23" x1="29.3" y1="30.6" x2="29.3" y2="40.8"/>
    <line class="cls-21" x1="30.2" y1="30.6" x2="30.2" y2="40.8"/>
    <line class="cls-19" x1="31.2" y1="30.6" x2="31.2" y2="40.8"/>
    <line class="cls-61" x1="32.2" y1="30.6" x2="32.2" y2="40.8"/>
    <line class="cls-42" x1="33.2" y1="30.6" x2="33.2" y2="40.8"/>
    <line class="cls-30" x1="34.2" y1="30.6" x2="34.2" y2="40.8"/>
    <line class="cls-62" x1="35.2" y1="30.6" x2="35.2" y2="40.8"/>
    <line class="cls-31" x1="36.2" y1="30.6" x2="36.2" y2="40.8"/>
    <line class="cls-60" x1="37.2" y1="30.6" x2="37.2" y2="40.8"/>
    <line class="cls-58" x1="38.2" y1="30.6" x2="38.2" y2="40.8"/>
    <line class="cls-15" x1="39.2" y1="30.6" x2="39.2" y2="40.8"/>
    <line class="cls-56" x1="40.1" y1="30.6" x2="40.1" y2="40.8"/>
    <line class="cls-17" x1="41.1" y1="30.6" x2="41.1" y2="40.8"/>
    <line class="cls-51" x1="42.1" y1="30.6" x2="42.1" y2="40.8"/>
    <line class="cls-53" x1="43.1" y1="30.6" x2="43.1" y2="40.8"/>
    <line class="cls-54" x1="44.1" y1="30.6" x2="44.1" y2="40.8"/>
    <line class="cls-26" x1="45.1" y1="30.6" x2="45.1" y2="40.8"/>
    <line class="cls-24" x1="46.1" y1="30.6" x2="46.1" y2="40.8"/>
    <line class="cls-43" x1="47.1" y1="30.6" x2="47.1" y2="40.8"/>
    <line class="cls-50" x1="48.1" y1="30.6" x2="48.1" y2="40.8"/>
    <line class="cls-25" x1="49.1" y1="30.6" x2="49.1" y2="40.8"/>
    <line class="cls-32" x1="50" y1="30.6" x2="50" y2="40.8"/>
    <line class="cls-33" x1="51" y1="30.6" x2="51" y2="40.8"/>
    <line class="cls-49" x1="52" y1="30.6" x2="52" y2="40.8"/>
    <line class="cls-13" x1="53" y1="30.6" x2="53" y2="40.8"/>
    <line class="cls-44" x1="54" y1="30.6" x2="54" y2="40.8"/>
    <line class="cls-28" x1="55" y1="30.6" x2="55" y2="40.7"/>
    <line class="cls-47" x1="56" y1="30.5" x2="56" y2="40.7"/>
    <rect class="cls-2" x="28" y="28.4" width="2.4" height="6.9"/>
    <rect class="cls-2" x="31" y="28.4" width="2.4" height="6.9"/>
  </g>
</svg>